<svg width="61" height="66" viewBox="0 0 61 66" fill="none" xmlns="http://www.w3.org/2000/svg">
<path d="M35.7913 13.767C27.8961 9.42617 9.17684 16.534 0 29.0142C2.7185 12.6722 11.2007 -0.712324 32.1972 0.0294157C53.1937 0.771156 61.7402 15.4291 60.9501 38.9777H18.8691C19.9691 46.1827 22.4013 48.6627 28.7529 51.3566C39.3268 53.5534 44.9973 52.2913 54.8102 47.1297V61.3202C47.083 64.6911 42.7233 65.7533 34.8928 66C16.6963 64.6704 7.45384 56.5208 7.03846 38.9777C8.7398 27.2862 12.4887 21.2991 23.3617 16.1824C20.8557 19.6014 19.471 21.5358 18.8691 26.5988H41.9313C41.2665 26.5726 43.6865 18.1078 35.7913 13.767Z" fill="white"/>
</svg>
