<svg width="66" height="66" viewBox="0 0 66 66" fill="none" xmlns="http://www.w3.org/2000/svg">
<path d="M24.3945 0C10.9218 0 0 10.9264 0 24.4047H9.07358C8.29847 6.40801 38.2371 1.89835 39.5667 24.4047H48.7891C48.7891 10.9264 37.8673 0 24.3945 0Z" transform="translate(8.62732 8.63094)" fill="white"/>
<path d="M24.3945 0C10.9218 0 0 10.9264 0 24.4047H9.07358C8.29847 6.40801 38.2371 1.89835 39.5667 24.4047H48.7891C48.7891 10.9264 37.8673 0 24.3945 0Z" transform="translate(8.62732 57.4404) scale(1 -1)" fill="white"/>
<rect width="10.6385" height="11.249" rx="2" transform="matrix(0.914778 0.403957 -0.403674 0.914903 41.1328 0)" fill="white"/>
<rect width="10.6385" height="11.249" rx="2" transform="matrix(-0.914778 0.403957 0.403674 0.914903 25.2016 0)" fill="white"/>
<rect width="10.6416" height="11.2458" rx="2" transform="matrix(0.395014 0.918675 -0.918555 0.395293 61.7964 15.1786)" fill="white"/>
<rect width="10.6416" height="11.2458" rx="2" transform="matrix(-0.395014 0.918675 0.918555 0.395293 4.20358 15.1786)" fill="white"/>
<rect width="10.6416" height="11.2458" rx="2" transform="matrix(-0.39197 0.919978 -0.91986 -0.392247 65.9823 41.0182)" fill="white"/>
<rect width="10.6416" height="11.2458" rx="2" transform="matrix(0.39197 0.919978 0.91986 -0.392247 0 41.0182)" fill="white"/>
<rect width="10.6385" height="11.2491" rx="2" transform="matrix(-0.920574 0.390567 -0.390291 -0.920692 50.6443 61.7295)" fill="white"/>
<rect width="10.6385" height="11.2491" rx="2" transform="matrix(0.920574 0.390567 0.390291 -0.920692 15.4697 61.8449)" fill="white"/>
</svg>
