<svg width="144" height="92" viewBox="0 0 144 92" fill="none" xmlns="http://www.w3.org/2000/svg">
<rect width="49" height="50" transform="translate(70 6)" fill="white"/>
<rect width="24" height="25" transform="translate(120 6)" fill="white"/>
<rect width="24" height="24" transform="translate(120 32)" fill="white"/>
<rect width="49" height="25" transform="translate(95 57)" fill="white"/>
<rect width="12" height="12" transform="translate(70 57)" fill="white"/>
<rect width="11" height="12" transform="translate(83 57)" fill="white"/>
<rect width="11" height="12" transform="translate(83 70)" fill="white"/>
<rect width="12" height="12" transform="translate(70 70)" fill="white"/>
<rect width="49" height="9" transform="translate(70 83)" fill="white"/>
<rect width="24" height="9" transform="translate(120 83)" fill="white"/>
<rect width="10" height="10" transform="translate(0 82)" fill="white"/>
<rect width="10" height="10" transform="translate(0 71)" fill="white"/>
<rect width="10" height="10" transform="translate(0 60)" fill="white"/>
<rect width="10" height="10" transform="translate(0 49)" fill="white"/>
<rect width="10" height="10" transform="translate(0 38)" fill="white"/>
<rect width="10" height="10" transform="translate(0 27)" fill="white"/>
<rect width="10" height="10" transform="translate(0 16)" fill="white"/>
<rect width="10" height="10" transform="translate(0 5)" fill="white"/>
<rect width="17" height="2" transform="translate(12 9)" fill="white"/>
<rect width="17" height="2" transform="translate(12 20)" fill="white"/>
<rect width="17" height="2" transform="translate(12 31)" fill="white"/>
<rect width="17" height="2" transform="translate(12 42)" fill="white"/>
<rect width="17" height="2" transform="translate(12 53)" fill="white"/>
<rect width="17" height="2" transform="translate(12 64)" fill="white"/>
<rect width="10" height="2" transform="translate(12 75)" fill="white"/>
<rect width="18" height="2" transform="translate(12 86)" fill="white"/>
<rect width="30" height="2" fill="white"/>
<rect width="30" height="2" transform="translate(70)" fill="white"/>
</svg>
